# xmcd
#
# Track frame offsets: 
#        150
#        20637
#        39640
#        55287
#        73033
#        92063
#        111527
#        130655
#        149646
#        162344
#        180663
#        196827
#        218814
#
# Disc length: 3155 seconds
#
# Revision: 1
# Processed by: cddbd v1.5.2PL0 Copyright (c) Steve Scherf et al.
# Submitted via: ExactAudioCopy v1.0b3
#
DISCID=c50c510d
DTITLE=씨야(SeeYa) - Lovely Sweet Heart
DYEAR=2007
DGENRE=Ballad
TTITLE0=사랑의 인사
TTITLE1=결혼할까요
TTITLE2=너는 내 남자
TTITLE3=Dirty Dancing
TTITLE4=어떻게 널 잊겠니
TTITLE5=사랑아
TTITLE6=그 사람이 나를 사랑해요
TTITLE7=Summer Dream
TTITLE8=사랑이 간다
TTITLE9=감동을 주세요
TTITLE10=얼음인형
TTITLE11=순애보
TTITLE12=남
EXTD=
EXTT0=
EXTT1=
EXTT2=
EXTT3=
EXTT4=
EXTT5=
EXTT6=
EXTT7=
EXTT8=
EXTT9=
EXTT10=
EXTT11=
EXTT12=
PLAYORDER=
